# Blender v2.83.0 OBJ File: ''
# www.blender.org
mtllib bridge.mtl
o Cube_Cube.003
v -1.000000 11.390709 10.780256
v -1.000000 11.670400 10.780256
v -1.000000 11.670400 -9.594057
v -1.000000 11.390713 -9.594057
v 1.000000 11.670400 -9.594057
v 1.000000 11.390713 -9.594057
v 1.000000 11.670400 10.780256
v 1.000000 11.390709 10.780256
vt 0.002952 0.002952
vt 0.248676 0.002952
vt 0.248676 0.248676
vt 0.002952 0.248676
vt 0.002952 0.002952
vt 0.248676 0.002952
vt 0.248676 0.248676
vt 0.002952 0.248676
vt 0.002952 0.002952
vt 0.248676 0.002952
vt 0.248676 0.248676
vt 0.002952 0.248676
vt 0.002952 0.002952
vt 0.248676 0.002952
vt 0.248676 0.248676
vt 0.002952 0.248676
vt 0.248676 0.002952
vt 0.248676 0.248676
vt 0.002952 0.002952
vt 0.002952 0.248676
vn -1.0000 0.0000 0.0000
vn 0.0000 0.0000 -1.0000
vn 1.0000 0.0000 0.0000
vn 0.0000 0.0000 1.0000
vn 0.0000 -1.0000 -0.0000
vn 0.0000 1.0000 0.0000
g Cube_Cube.003_Cube_Cube.003_None
usemtl None
s 1
f 1/1/1 2/2/1 3/3/1 4/4/1
f 4/5/2 3/6/2 5/7/2 6/8/2
f 6/9/3 5/10/3 7/11/3 8/12/3
f 8/13/4 7/14/4 2/15/4 1/16/4
f 4/5/5 6/17/5 8/18/5 1/16/5
f 5/19/6 3/6/6 2/15/6 7/20/6
o Cube.000_Cube.002
v 2.231437 -2.231438 -12.231438
v 2.231437 -2.231439 -7.768563
v -2.231437 -2.231439 -7.768563
v -2.231436 -2.231438 -12.231439
v 2.231438 11.670799 -12.231434
v -2.231437 11.670799 -12.231436
v -2.231438 11.670800 -7.768562
v 2.231436 11.670800 -7.768599
vt 0.000000 0.000000
vt 0.202857 0.000000
vt 0.202857 0.202857
vt 0.000000 0.202857
vt 0.000000 0.000000
vt 0.222663 0.000000
vt 0.222663 0.222663
vt 0.000000 0.222663
vt 0.165317 0.000000
vt 0.165317 0.165317
vt 0.000000 0.165317
vt 0.000000 0.000000
vt 0.165317 0.000000
vt 0.165317 0.165317
vt 0.000000 0.165317
vt 0.000000 0.000000
vt 0.165317 0.000000
vt 0.165317 0.165317
vt 0.000000 0.165317
vt 0.165317 0.000000
vt 0.165317 0.165317
vt 0.000000 0.165317
vn 0.0000 -1.0000 -0.0000
vn -0.0000 1.0000 -0.0000
vn 1.0000 -0.0000 0.0000
vn 0.0000 0.0000 1.0000
vn -1.0000 -0.0000 -0.0000
vn 0.0000 0.0000 -1.0000
g Cube.000_Cube.002_Cube.000_Cube.002_Material.002
usemtl Material.002
s 1
f 9/21/7 10/22/7 11/23/7 12/24/7
f 13/25/8 14/26/8 15/27/8 16/28/8
f 9/21/9 13/29/9 16/30/9 10/31/9
f 10/32/10 16/33/10 15/34/10 11/35/10
f 11/36/11 15/37/11 14/38/11 12/39/11
f 13/25/12 9/40/12 12/41/12 14/42/12
o Cube.000_Cube.001
v 2.231437 -2.231438 7.768562
v 2.231437 -2.231439 12.231437
v -2.231437 -2.231439 12.231437
v -2.231436 -2.231438 7.768561
v 2.231438 11.670799 7.768566
v -2.231437 11.670799 7.768565
v -2.231438 11.670798 12.231438
v 2.231436 11.670798 12.231401
vt 0.000000 0.000000
vt 0.202857 0.000000
vt 0.202857 0.202857
vt 0.000000 0.202857
vt 0.000000 0.000000
vt 0.222663 0.000000
vt 0.222663 0.222663
vt 0.000000 0.222663
vt 0.165317 0.000000
vt 0.165317 0.165317
vt 0.000000 0.165317
vt 0.000000 0.000000
vt 0.165317 0.000000
vt 0.165317 0.165317
vt 0.000000 0.165317
vt 0.000000 0.000000
vt 0.165317 0.000000
vt 0.165317 0.165317
vt 0.000000 0.165317
vt 0.165317 0.000000
vt 0.165317 0.165317
vt 0.000000 0.165317
vn 0.0000 -1.0000 -0.0000
vn 0.0000 1.0000 0.0000
vn 1.0000 -0.0000 0.0000
vn 0.0000 0.0000 1.0000
vn -1.0000 -0.0000 -0.0000
vn 0.0000 0.0000 -1.0000
g Cube.000_Cube.001_Cube.000_Cube.001_Material.003
usemtl Material.003
s 1
f 17/43/13 18/44/13 19/45/13 20/46/13
f 21/47/14 22/48/14 23/49/14 24/50/14
f 17/43/15 21/51/15 24/52/15 18/53/15
f 18/54/16 24/55/16 23/56/16 19/57/16
f 19/58/17 23/59/17 22/60/17 20/61/17
f 21/47/18 17/62/18 20/63/18 22/64/18
